<?xml version="1.0" encoding="utf-8"?>
<!-- Generator: Adobe Illustrator 24.0.2, SVG Export Plug-In . SVG Version: 6.00 Build 0)  -->
<svg version="1.1" id="Layer_3" xmlns="http://www.w3.org/2000/svg" xmlns:xlink="http://www.w3.org/1999/xlink" x="0px" y="0px"
	 viewBox="0 0 849.6 552.6" style="enable-background:new 0 0 849.6 552.6;" xml:space="preserve">
<style type="text/css">
	.st0{fill:#FFFFFF;stroke:#B8E6FF;stroke-linejoin:round;}
	.st1{fill:none;stroke:#B8E6FF;stroke-linejoin:round;}
	.st2{fill:none;stroke:#86BFEF;stroke-miterlimit:10;}
	.st3{fill:#86BFEF;}
	.st4{fill:#14B0BF;}
	.st5{fill:#284962;}
	.st6{fill:#FFFFFF;}
	.st7{fill:#52A5FF;stroke:#418BE5;stroke-linejoin:round;}
	.st8{fill:#6EBEFF;}
	.st9{fill:#85CEFF;}
	.st10{fill:#FFFFFF;stroke:#418BE5;stroke-linejoin:round;}
	.st11{clip-path:url(#SVGID_2_);}
	.st12{fill:none;stroke:#DEF2FF;stroke-width:5;stroke-linejoin:round;}
	.st13{fill:#FFFFFF;stroke:#CCEDFF;stroke-miterlimit:10;}
	.st14{fill:none;stroke:#CCEDFF;stroke-miterlimit:10;}
	.st15{fill:none;stroke:#CCEDFF;stroke-width:3;stroke-linecap:round;stroke-miterlimit:10;}
	.st16{fill:#CCEDFF;}
	.st17{fill:#E6F7FF;}
	.st18{fill:none;stroke:#DEF2FF;stroke-width:3;stroke-linejoin:round;}
	.st19{fill:#333333;}
	.st20{fill:#2D2D2D;}
	.st21{fill:#934769;}
	.st22{fill:#E6D69E;}
	.st23{fill:#ECE1B2;}
	.st24{fill:#52A5FF;}
	.st25{opacity:0.4;}
	.st26{fill:#C07D1B;}
	.st27{fill:#D6A8AF;}
	.st28{fill:#CE939A;}
	.st29{fill:#38322B;}
	.st30{fill:#CCA1AA;}
	.st31{fill:#595AA0;}
	.st32{fill:#CCD0EA;}
	.st33{fill:#DEE3F4;}
	.st34{fill:#A94700;}
	.st35{fill:#332E62;}
	.st36{fill:#3A3582;}
	.st37{fill:#88324C;}
	.st38{fill:#692640;}
</style>
<title>modern education</title>
<path class="st0" d="M203.2,242.3c-21.5-28.1-63.9-89-43.7-222.2C228.2,91,235.7,137.2,238.7,226"/>
<path class="st1" d="M159.4,20.1c0,0,12,107.6,60.9,210.5"/>
<path class="st1" d="M159.4,20.1c0,0-7.4,114.8,53.4,219.1"/>
<path class="st1" d="M225.1,226.6c-2.9-25.3-41.3-149.9-65.6-206.4"/>
<path class="st1" d="M232.2,220.8c-10.1-64.1-18-127.4-72.7-200.6"/>
<path class="st0" d="M187.5,264.7c-24.5-15.8-73.9-51.2-90.8-165.6c73.3,34.9,90.9,69.8,115.4,140.7"/>
<path class="st1" d="M96.7,99c0,0,36.5,83.2,101.8,150.5"/>
<path class="st1" d="M96.7,99c0,0,22.6,95.4,97.8,159.9"/>
<path class="st1" d="M201.3,244.7C192.6,225.1,130.4,136.9,96.7,99"/>
<path class="st1" d="M205.6,237.7C181.4,189.1,159.2,140.4,96.7,99"/>
<path class="st0" d="M169.3,352.4c-32.6-2.2-100.2-10.5-168.8-120.4c92.3-6.3,126.4,20,183.6,80"/>
<path class="st1" d="M0.5,231.9c0,0,75.3,65.8,173.6,98.2"/>
<path class="st1" d="M0.5,231.9c0,0,66.2,86.7,173.7,110.3"/>
<path class="st1" d="M174.9,323.4c-17.8-15.4-122.2-71.5-174.4-91.5"/>
<path class="st1" d="M176.3,313.5c-46.9-36.8-91.9-74.8-175.8-81.6"/>
<path class="st2" d="M162.1,307.8c-15.4-83.1-77.3-126.4-77.3-126.4"/>
<path class="st3" d="M86.7,182.8c0,0-12.2-25.7-21.4-18S86.7,182.8,86.7,182.8z"/>
<path class="st3" d="M97.4,191.8c0,0,5.8-30.2-6.2-31.4S97.4,191.8,97.4,191.8z"/>
<path class="st3" d="M107.6,201.7c0,0,15.7-25.2,5-31.6S107.6,201.7,107.6,201.7z"/>
<path class="st3" d="M120.9,216.7c0,0,14.8-23.8,4.7-29.8S120.9,216.7,120.9,216.7z"/>
<path class="st3" d="M121.7,216.5c0,0-23.8-10.4-26.4,2.3S121.7,216.5,121.7,216.5z"/>
<path class="st3" d="M131.6,231.2c0,0,14.8-23.8,4.7-29.8S131.6,231.2,131.6,231.2z"/>
<path class="st3" d="M132.3,230.9c0,0-23.8-10.4-26.4,2.3S132.3,230.9,132.3,230.9z"/>
<path class="st3" d="M140.4,248.2c0,0,17.3-21.4,8-28.8S140.4,248.2,140.4,248.2z"/>
<path class="st3" d="M141.2,248.1c0,0-22.4-13.8-26.4-1.7S141.2,248.1,141.2,248.1z"/>
<path class="st3" d="M148.8,263.3c0,0,17.3-21.4,8-28.8S148.8,263.3,148.8,263.3z"/>
<path class="st3" d="M149.7,263.2c0,0-22.4-13.8-26.4-1.7S149.7,263.2,149.7,263.2z"/>
<path class="st3" d="M155.7,283.9c0,0,17.3-21.4,8-28.8S155.7,283.9,155.7,283.9z"/>
<path class="st3" d="M156.5,283.8c0,0-22.4-13.8-26.4-1.7S156.5,283.8,156.5,283.8z"/>
<path class="st3" d="M107.2,201.7c0,0-27-1.7-26,12S107.2,201.7,107.2,201.7z"/>
<path class="st3" d="M97,190.7c0,0-25.5-10.4-27.9,3.1C66.5,207.3,97,190.7,97,190.7z"/>
<path class="st2" d="M125,370.9c-42.7-50.6-102.7-50-102.7-50"/>
<path class="st3" d="M24.2,321c0,0-18.4-11.9-21.9-1.9S24.2,321,24.2,321z"/>
<path class="st3" d="M35.1,322c0,0-7.5-24.2-16.4-18.9S35.1,322,35.1,322z"/>
<path class="st3" d="M46.1,323.8c0,0,1.3-25.6-8.6-24.8S46.1,323.8,46.1,323.8z"/>
<path class="st3" d="M61.2,327.7c0,0,1.3-24.1-8.1-23.3S61.2,327.7,61.2,327.7z"/>
<path class="st3" d="M61.7,327.1c0,0-20.7,4.7-17.6,14.8S61.7,327.1,61.7,327.1z"/>
<path class="st3" d="M74.2,332.4c0,0,1.3-24.1-8.1-23.3S74.2,332.4,74.2,332.4z"/>
<path class="st3" d="M74.7,331.9c0,0-20.7,4.7-17.6,14.8S74.7,331.9,74.7,331.9z"/>
<path class="st3" d="M86.9,339.9c0,0,4-23.7-5.4-24.3S86.9,339.9,86.9,339.9z"/>
<path class="st3" d="M87.5,339.4c0,0-21,1.6-19.2,12.1S87.5,339.4,87.5,339.4z"/>
<path class="st3" d="M98.7,346.4c0,0,4-23.7-5.4-24.3S98.7,346.4,98.7,346.4z"/>
<path class="st3" d="M99.2,345.9c0,0-21,1.6-19.2,12.1S99.2,345.9,99.2,345.9z"/>
<path class="st3" d="M111.4,357.4c0,0,4-23.7-5.4-24.3S111.4,357.4,111.4,357.4z"/>
<path class="st3" d="M111.9,356.9c0,0-21,1.5-19.2,12.1S111.9,356.9,111.9,356.9z"/>
<path class="st3" d="M45.8,323.9c0,0-19.6,12.4-13.7,21.5S45.8,323.9,45.8,323.9z"/>
<path class="st3" d="M34.4,321.4c0,0-21.9,5.5-18.4,16.3S34.4,321.4,34.4,321.4z"/>
<path class="st0" d="M644.8,208c26.1-22.6,78.3-72.4,82.1-207.5c-79.8,53.4-95.4,97-114,183.2"/>
<path class="st1" d="M726.9,0.5c0,0-30.7,102.6-96.9,192"/>
<path class="st1" d="M726.9,0.5c0,0-13.1,114.2-91,202.2"/>
<path class="st1" d="M626.2,187.5c7.4-24.1,67-137.2,100.8-187"/>
<path class="st1" d="M620.2,180.1c21.2-60.4,40.2-120.6,106.7-179.6"/>
<path class="st0" d="M676.4,281.9c31.7-9.3,96.6-32.1,145.8-155c-91.7,13.9-120.8,47.2-167,118.5"/>
<path class="st1" d="M822.1,126.9c0,0-63,81-154.2,134.1"/>
<path class="st1" d="M822.1,126.9c0,0-50.6,99.5-152.2,146.1"/>
<path class="st1" d="M666.1,254.7c14.9-19,108.1-96.8,156.1-127.8"/>
<path class="st1" d="M663.1,245.3c40-46.3,77.8-93.4,159.1-118.4"/>
<path class="st0" d="M663.2,338.4c32.4,5,100.1,11.7,185.9-81.1c-89.6-26.4-127.4-8.1-193.6,38.2"/>
<path class="st1" d="M849.1,257.2c0,0-84.9,48-186.8,58.2"/>
<path class="st1" d="M849.1,257.2c0,0-79.5,70.5-189,70.2"/>
<path class="st1" d="M662.6,308.8c20-11.2,131.9-43.4,186.5-51.5"/>
<path class="st1" d="M662.9,298.8c52.2-25.8,102.7-53.2,186.2-41.5"/>
<path class="st0" d="M636.1,373.8c21.3,16.8,66.6,49.3,146.8,15.3c-56-55.9-86.3-57.6-142.5-50.2"/>
<path class="st1" d="M782.8,389.1c0,0-69.5,1.1-142.3-32.7"/>
<path class="st1" d="M782.8,389.1c0,0-70.8,20-146.5-24.7"/>
<path class="st1" d="M642.3,351.7c16.4-0.1,101,21.4,140.6,37.5"/>
<path class="st1" d="M644.7,344.4c41.9,2.1,83,2.3,138.1,44.8"/>
<path class="st2" d="M674.7,226.5c15.4-83.1,77.3-126.4,77.3-126.4"/>
<path class="st3" d="M750.1,101.5c0,0,12.2-25.7,21.4-18S750.1,101.5,750.1,101.5z"/>
<path class="st3" d="M739.4,110.6c0,0-5.8-30.2,6.2-31.4S739.4,110.6,739.4,110.6z"/>
<path class="st3" d="M729.2,120.4c0,0-15.7-25.2-5-31.6S729.2,120.4,729.2,120.4z"/>
<path class="st3" d="M715.9,135.5c0,0-14.8-23.8-4.7-29.8S715.9,135.5,715.9,135.5z"/>
<path class="st3" d="M715.1,135.3c0,0,23.8-10.4,26.4,2.3S715.1,135.3,715.1,135.3z"/>
<path class="st3" d="M705.2,149.9c0,0-14.8-23.8-4.7-29.8S705.2,149.9,705.2,149.9z"/>
<path class="st3" d="M704.5,149.7c0,0,23.8-10.4,26.4,2.3S704.5,149.7,704.5,149.7z"/>
<path class="st3" d="M696.4,166.9c0,0-17.3-21.4-8-28.8S696.4,166.9,696.4,166.9z"/>
<path class="st3" d="M695.6,166.8c0,0,22.4-13.8,26.4-1.7S695.6,166.8,695.6,166.8z"/>
<path class="st3" d="M687.9,182.1c0,0-17.3-21.4-8-28.8S687.9,182.1,687.9,182.1z"/>
<path class="st3" d="M687.1,182c0,0,22.4-13.8,26.4-1.7S687.1,182,687.1,182z"/>
<path class="st3" d="M681.1,202.7c0,0-17.3-21.4-8-28.8S681.1,202.7,681.1,202.7z"/>
<path class="st3" d="M680.3,202.6c0,0,22.4-13.8,26.4-1.7S680.3,202.6,680.3,202.6z"/>
<path class="st3" d="M729.6,120.4c0,0,27-1.7,26,12S729.6,120.4,729.6,120.4z"/>
<path class="st3" d="M739.8,109.5c0,0,25.5-10.4,28,3.1S739.8,109.5,739.8,109.5z"/>
<path class="st2" d="M646.1,382.5c45.5-43.7,103.1-36.2,103.1-36.2"/>
<path class="st3" d="M747.5,346.2c0,0,18.8-9.3,21.2,0.7S747.5,346.2,747.5,346.2z"/>
<path class="st3" d="M736.8,345.8c0,0,9.3-22.4,17.4-16.3S736.8,345.8,736.8,345.8z"/>
<path class="st3" d="M726.2,346.3c0,0,1-24.8,10.5-22.8S726.2,346.3,726.2,346.3z"/>
<path class="st3" d="M711.3,348.3c0,0,0.9-23.3,9.8-21.5S711.3,348.3,711.3,348.3z"/>
<path class="st3" d="M710.9,347.7c0,0,19.5,6.9,15.7,16.3S710.9,347.7,710.9,347.7z"/>
<path class="st3" d="M698.4,351.4c0,0,0.9-23.3,9.8-21.5S698.4,351.4,698.4,351.4z"/>
<path class="st3" d="M698,350.8c0,0,19.5,6.9,15.7,16.3S698,350.8,698,350.8z"/>
<path class="st3" d="M685.5,357.1c0,0-1.7-23.2,7.3-22.7S685.5,357.1,685.5,357.1z"/>
<path class="st3" d="M685,356.6c0,0,20.1,3.9,17.4,13.8S685,356.6,685,356.6z"/>
<path class="st3" d="M673.6,361.9c0,0-1.7-23.2,7.3-22.7S673.6,361.9,673.6,361.9z"/>
<path class="st3" d="M673.2,361.4c0,0,20.1,3.9,17.4,13.8S673.2,361.4,673.2,361.4z"/>
<path class="st3" d="M660.4,371.1c0,0-1.7-23.2,7.3-22.7S660.4,371.1,660.4,371.1z"/>
<path class="st3" d="M660,370.5c0,0,20.1,3.9,17.4,13.8S660,370.5,660,370.5z"/>
<path class="st3" d="M726.4,346.5c0,0,17.8,14.2,11.3,22.3S726.4,346.5,726.4,346.5z"/>
<path class="st3" d="M737.6,345.4c0,0,20.5,7.8,16.3,17.7S737.6,345.4,737.6,345.4z"/>
<path class="st4" d="M804.3,410.7l-9.8-1.1c0.9-7.5,1.3-28.9-7.7-38.6c-3.1-3.4-7.5-5.3-12.1-5.2c-23.9-0.4-36.7-3.5-42.7-10.4
	c-5.4-6.1-4.1-13.5-2.8-20.7c1.1-6.5,2.3-13.2-1.3-19.4c-7.4-18.8-47.3-13.5-62.1-9.9l-2.4-9.1c2.5-0.6,61.8-14.7,73.5,15.1
	c4.9,8.5,3.4,17.5,2.1,24.8c-1.1,6.4-1.7,10.5,0.7,13.2c3.8,4.3,15.7,6.7,35.3,7c7.9,0.1,14.4,2.9,19.3,8.3
	C807.9,379.6,804.5,409.4,804.3,410.7z"/>
<path class="st5" d="M829,472.3c0,10.4-8.8,18.8-19.7,18.8h-19.7c-10.9,0-19.7-8.4-19.7-18.8v-47.9c0-10.4,8.8-18.8,19.7-18.8h19.7
	c10.9,0,19.7,8.4,19.7,18.8V472.3z"/>
<path class="st6" d="M806.8,429.3c0,7.6-3.3,13.8-7.4,13.8s-7.4-6.2-7.4-13.8s3.3-13.8,7.4-13.8S806.8,421.7,806.8,429.3z"/>
<path class="st7" d="M672.9,441.3H176.7c-2.9,0-5.3-2.4-5.3-5.3l0,0V86.5c0-2.9,2.4-5.3,5.3-5.3h496.2c2.9,0,5.3,2.4,5.3,5.3V436
	C678.2,438.9,675.8,441.3,672.9,441.3z"/>
<rect x="424.8" y="90" class="st8" width="244.5" height="341.9"/>
<rect x="180.3" y="90" class="st8" width="244.5" height="341.9"/>
<path class="st9" d="M663.4,87.2v341.2c-158.8-12.5-238.6,2.7-238.6,2.7V89.9C424.8,89.9,483.7,56.6,663.4,87.2z"/>
<path class="st10" d="M663.4,87.2v341.2c-179.7-30.7-238.5,2.7-238.5,2.7V89.9C424.8,89.9,483.7,56.6,663.4,87.2z"/>
<path class="st9" d="M186.2,87.2v341.2c158.8-12.5,238.6,2.7,238.6,2.7V89.9C424.8,89.9,365.9,56.6,186.2,87.2z"/>
<g>
	<defs>
		<rect id="SVGID_1_" x="200.9" y="84.1" width="209.2" height="319.7"/>
	</defs>
	<clipPath id="SVGID_2_">
		<use xlink:href="#SVGID_1_"  style="overflow:visible;"/>
	</clipPath>
	<g class="st11">
		<path class="st12" d="M415.1,327.5c0,0-54.1-30.6-219.2-2.5"/>
		<path class="st12" d="M415.1,350.7c0,0-54.1-30.6-219.2-2.5"/>
		<path class="st12" d="M415.1,373.8c0,0-54.1-30.7-219.2-2.5"/>
		<path class="st12" d="M415.1,396.9c0,0-54.1-30.7-219.2-2.5"/>
		<path class="st13" d="M349,192.9c0-26.4-22-47.9-49.2-47.9c-27.2,0-49.2,21.4-49.2,47.9c0,10.2,3.3,20.1,9.4,28.2l0,0
			c7,10.3,25.3,18.8,25.3,32.9v8c0,1.6,1.3,2.9,3,2.9h23.1c1.6,0,2.9-1.3,3-2.9v-8c0-14.1,18.3-22.6,25.3-32.9l0,0
			C345.7,213,349.1,203.1,349,192.9z"/>
		<path class="st14" d="M293.4,262.6c0.3-6.6,1.8-48.6-5.3-62c-3.5-6.6-10-9.5-14.2-7c-2.8,1.6-4.1,6-3.5,10.1
			c1.2,7.9,8.7,17.7,29,17.7c20.3,0,27.8-9.8,29-17.7c0.6-4-0.7-8.4-3.5-10.1c-4.2-2.5-10.8,0.4-14.2,7c-7.1,13.5-5.6,55.5-5.3,62"
			/>
		<path class="st15" d="M289.3,152.9c-17.8,4.4-30.9,20-30.9,38.7"/>
		<path class="st16" d="M300.3,151.6c0,1.6-1.2,2.9-2.7,2.9s-2.9-1.2-2.9-2.7c0-1.6,1.2-2.9,2.7-2.9c0,0,0,0,0.1,0
			C299.1,148.8,300.3,150,300.3,151.6C300.3,151.6,300.3,151.6,300.3,151.6z"/>
		<path class="st16" d="M283.7,256h31.3v14.5c0,2.4-0.7,4.7-2,6.7l0,0c-2.5,3.8-6.8,6.1-11.4,6.1h-4.6c-4.6,0-8.8-2.3-11.4-6.1l0,0
			c-1.3-2-2-4.3-2-6.7V256z"/>
		<path class="st17" d="M283.7,266.7h0.3l31.3-4.2c1.1-0.1,1.8-1.1,1.7-2.1c0,0,0,0,0,0c-0.2-1-1.1-1.7-2.2-1.6l-31.3,4.2
			c-1.1,0.1-1.8,1.1-1.7,2.1c0,0,0,0,0,0C282,266,282.8,266.6,283.7,266.7z"/>
		<path class="st17" d="M283.7,273.3c0.1,0,0.2,0,0.3,0l31.3-4.2c1-0.1,1.8-1.1,1.7-2.1c0,0,0,0,0,0c-0.2-1-1.2-1.7-2.2-1.6
			l-31.3,4.2c-1,0.1-1.7,1.1-1.6,2.1C282,272.6,282.8,273.3,283.7,273.3z"/>
		<path class="st17" d="M285,279.9h0.3l29.7-4c1.1-0.1,1.8-1.1,1.7-2.2c-0.2-1-1.2-1.7-2.2-1.6l-29.7,4c-1.1,0.1-1.8,1.1-1.7,2.2
			C283.2,279.2,284,279.9,285,279.9z"/>
		<path class="st14" d="M320.5,169.6V94c0,0-5-0.2-13.8-0.1"/>
		<path class="st18" d="M300.5,103.1c-20.2,0.5-43.5,2-70.2,5.2"/>
		<path class="st18" d="M300.5,111.5c-20.2,0.5-43.5,2-70.2,5.2"/>
		<path class="st18" d="M300.5,94.8c-20.2,0.5-43.5,2-70.2,5.2"/>
		<path class="st18" d="M300.5,120.7c-8,0.2-16.4,0.5-25.3,1.1"/>
		<path class="st16" d="M304.4,93.9c0,1.2,1,2.3,2.2,2.3c1.2,0,2.3-1,2.3-2.2c0-1.2-1-2.3-2.2-2.3c0,0,0,0-0.1,0
			C305.4,91.7,304.4,92.6,304.4,93.9C304.4,93.9,304.4,93.9,304.4,93.9z"/>
		<path class="st14" d="M400.9,160.7v49.1c-11.7-2.8-28-5.5-50-6.8"/>
		<path class="st18" d="M401.1,133c-12.2-2.9-29.5-5.8-53-7"/>
		<path class="st18" d="M401.1,142.9c-12.2-2.9-29.5-5.8-53-7"/>
		<path class="st18" d="M401.1,152.9c-13.3-3-26.7-5.1-40.3-6.1"/>
		<path class="st16" d="M398.6,160.7c0,1.2,1,2.3,2.2,2.3c1.2,0,2.3-1,2.3-2.2c0-1.2-1-2.3-2.2-2.3c0,0,0,0-0.1,0
			C399.7,158.4,398.7,159.4,398.6,160.7C398.6,160.6,398.6,160.7,398.6,160.7z"/>
		<polyline class="st14" points="277.7,273 277.7,297.5 256.3,297.5 		"/>
		<path class="st18" d="M251.8,271c0,0-25.2,1.3-54.7,6"/>
		<path class="st18" d="M251.8,279.4c0,0-25.2,1.3-54.7,6"/>
		<path class="st18" d="M251.8,287.8c0,0-25.2,1.3-54.7,6"/>
		<path class="st18" d="M251.8,296.1c0,0-12.9,0.7-30.9,2.7"/>
		<path class="st16" d="M254.1,297.5c0,1.2,0.9,2.3,2.2,2.3c1.2,0,2.3-0.9,2.3-2.2s-0.9-2.3-2.2-2.3c0,0,0,0-0.1,0
			C255.1,295.3,254.1,296.2,254.1,297.5C254.1,297.5,254.1,297.5,254.1,297.5z"/>
	</g>
</g>
<path class="st19" d="M187.1,232.9c-17.5-2.6-16.3-19.6-10.5-23.6s22-4.2,21.7,11.8S187.1,232.9,187.1,232.9z"/>
<path class="st20" d="M186.9,222.9c-7.6-1.1-11.7-5-13.4-9.3c-2.4,6.5-0.1,17.3,13.5,19.3c0,0,10.9,4.1,11.2-11.8
	c0.1-1.8-0.1-3.6-0.6-5.3C195.4,226.1,186.9,222.9,186.9,222.9z"/>
<path class="st21" d="M191.8,233.4c-13.5-0.8-11.9-10.9-7.3-13.4s17.3-3.3,16.4,6S191.8,233.4,191.8,233.4z"/>
<rect x="140" y="487.9" class="st22" width="177.6" height="30.1"/>
<rect x="317.6" y="487.9" class="st23" width="177.6" height="30.1"/>
<path class="st24" d="M141.8,484.3h355c1,0,1.8,0.8,1.8,1.8l0,0c0,1-0.8,1.8-1.8,1.8h-355c-1,0-1.8-0.8-1.8-1.8l0,0
	C140,485.1,140.8,484.3,141.8,484.3z"/>
<path class="st24" d="M141.8,514.5h355c1,0,1.8,0.8,1.8,1.8v0c0,1-0.8,1.8-1.8,1.8h-355c-1,0-1.8-0.8-1.8-1.8v0
	C140,515.3,140.8,514.5,141.8,514.5z"/>
<rect x="140" y="484.3" class="st24" width="7.4" height="33.7"/>
<g class="st25">
	<polygon class="st26" points="409.1,496.1 317.6,496.3 209.8,496.1 209.8,496.1 317.6,495.9 409.1,496.1 	"/>
</g>
<g class="st25">
	<polygon class="st26" points="240.8,503 202.1,503.1 156.6,503 156.6,503 202.1,502.8 240.8,503 	"/>
</g>
<g class="st25">
	<polygon class="st26" points="363.1,511 319.2,511.1 267.4,511 267.4,511 319.2,510.9 363.1,511 	"/>
</g>
<rect x="108.5" y="521.7" class="st23" width="187.7" height="30.9"/>
<rect x="296.2" y="521.7" class="st22" width="187.7" height="30.9"/>
<path class="st24" d="M110.3,518h375.4c1,0,1.8,0.8,1.8,1.8v0c0,1-0.8,1.8-1.8,1.8H110.3c-1,0-1.8-0.8-1.8-1.8v0
	C108.5,518.8,109.3,518,110.3,518z"/>
<path class="st24" d="M110.3,549h375.4c1,0,1.8,0.8,1.8,1.8v0c0,1-0.8,1.8-1.8,1.8H110.3c-1,0-1.8-0.8-1.8-1.8v0
	C108.5,549.8,109.3,549,110.3,549z"/>
<rect x="108.5" y="518" class="st24" width="7.8" height="34.6"/>
<g class="st25">
	<polygon class="st26" points="393,530 296.2,530.2 182.3,530 182.3,530 296.2,529.9 393,530 	"/>
</g>
<g class="st25">
	<polygon class="st26" points="215.1,537.1 174.2,537.3 126.1,537.1 126.1,537.1 174.2,537 215.1,537.1 	"/>
</g>
<g class="st25">
	<polygon class="st26" points="344.3,545.4 297.9,545.5 243.3,545.4 243.3,545.4 297.9,545.3 344.3,545.4 	"/>
</g>
<rect x="137.1" y="424.9" class="st22" width="179" height="59.5"/>
<rect x="316.1" y="424.9" class="st22" width="179" height="59.5"/>
<path class="st24" d="M140.6,417.9H495c1.9,0,3.5,1.6,3.5,3.5v0c0,1.9-1.6,3.5-3.5,3.5H140.6c-1.9,0-3.5-1.6-3.5-3.5v0
	C137.1,419.4,138.6,417.9,140.6,417.9z"/>
<path class="st24" d="M140.6,477.3H495c1.9,0,3.5,1.6,3.5,3.5l0,0c0,1.9-1.6,3.5-3.5,3.5c0,0,0,0,0,0H140.6c-1.9,0-3.5-1.6-3.5-3.5
	l0,0l0,0C137,478.9,138.6,477.3,140.6,477.3C140.5,477.3,140.5,477.3,140.6,477.3z"/>
<rect x="137.1" y="417.9" class="st24" width="7.4" height="66.5"/>
<g class="st25">
	<polygon class="st26" points="408.3,441 316.1,441.3 207.4,441 207.4,441 316.1,440.6 408.3,441 	"/>
</g>
<g class="st25">
	<polygon class="st26" points="238.7,454.6 199.7,455 153.8,454.6 153.8,454.6 199.7,454.2 238.7,454.6 	"/>
</g>
<g class="st25">
	<polygon class="st26" points="362,470.5 317.7,470.6 265.5,470.5 265.5,470.5 317.7,470.3 362,470.5 	"/>
</g>
<path class="st5" d="M185.1,454.6h-20.5c0,0-7.6,4-7.8,12.8s-0.5,17-6.4,17H170c0,0,3.8-5.3,3.3-16S185.1,454.6,185.1,454.6z"/>
<path class="st27" d="M275.9,348l9.5-0.6c0,0,10.2,4.3,16.7-5.5c0,0,1.7-4-1.6-4.9s-1.1,2.8-5.8,1.5s-9.7-0.5-12.1,2.1l-4.3,4.2
	L275.9,348z"/>
<path class="st28" d="M214.3,273.9c0,0-1.7,5.6-1.4,6.3c0.6,1.5,13.4,2,16.5,3.7s5.9,9.4,6.7,10.9s-62.1-4.5-66.3-10.4
	c0,0,1.8-3.3,8.9-4.2c6.6-0.8,13.1-0.7,14.9-2.4c1-0.9,5.4-16.6,5.4-16.6L214.3,273.9z"/>
<path class="st19" d="M225.9,234.1L225.9,234.1c0,0-10.6-14-22.1-17c-9.1-2.4-15.7,7.4-15.7,7.4c-12.2,24.9,7.6,33.7,7.6,33.7l0,0
	l24.3,4.8l2.9-4.7C232.8,244.8,229,237.7,225.9,234.1z"/>
<path class="st29" d="M202.6,252.7l-6.9,5.5c0,0-19.8-8.8-7.6-33.7c0,0-2.7,23.5,9.1,25.3C200.4,250.4,202,251.4,202.6,252.7z"/>
<path class="st27" d="M214.1,273.7c0,0-21.6-5.5-18-19.2s3.2-23.7,17.1-20.7s15.2,8.9,15.1,13.8S219.8,274.8,214.1,273.7z"/>
<path class="st19" d="M223,236.1c0,0-10.1,14.5-19.7,14.4s-12.9-3.6-12.9-3.6c3.9-4.6,8.1-9,12.5-13.2
	C206.5,230.1,220.6,227.2,223,236.1z"/>
<path class="st30" d="M341.8,301.7C341.8,301.7,341.8,301.7,341.8,301.7C341.8,301.5,341.8,301.8,341.8,301.7z"/>
<path class="st28" d="M190.4,365.6c0,0-7,30.1-2,42.2s12.5,9.6,18.1,10.1s63.7,0,63.7,0s-7.3,26.3-1.1,83.8l5.5,1.1
	c0,0,23.4-96.7,17.2-105.7S190.4,365.6,190.4,365.6z"/>
<path class="st28" d="M299.8,505.1h-5.1c-6.2-10.5-11.3-20.2-15.6-28.9h16.7C298.2,492.7,299.8,505.1,299.8,505.1z"/>
<path class="st27" d="M247.7,348.6c0,0-3.1-27.5-6.8-39.3l0,0c0,0-4.5-26.5-20.5-26.9c-6.7-0.2,2.3,29.2,2.3,29.2s0.6,18.5,2.6,24.1
	c1.3,3.7,5.8,34.3,14.1,32.1c23.4-6.3,46-20.4,46-20.4s-1.1-7.5-2.8-6.8C262.2,347.8,247.7,348.6,247.7,348.6z"/>
<polygon class="st31" points="311.6,317.5 309.2,327.1 287,351.1 288,330.1 302.3,327.9 "/>
<polygon class="st31" points="287.5,331.4 309.2,327.1 287,351.1 258,364.1 "/>
<polygon class="st32" points="287.8,329.3 257.5,362.2 258.8,363.2 288.3,331.2 "/>
<polygon class="st32" points="310.8,317.6 301.8,327.9 308.5,326.6 "/>
<polygon class="st33" points="288.3,331.2 287.8,329.3 308.7,325.7 309.1,327 "/>
<polygon class="st33" points="311.4,317.8 309.1,327 308.7,325.7 310.8,317.6 "/>
<path class="st34" d="M305.7,326.2c0,0,1,0,1.3,0.7c0.3,0.7,1.2,4.3,1.2,4.3s0.2,0.7,0.5,0.7l1-0.3c-0.2-0.2-0.4-0.5-0.6-0.8
	c-0.1-0.4-1.2-4.2-1.2-4.2s-0.4-0.7-0.9-0.6L305.7,326.2z"/>
<path class="st35" d="M233.6,376.1c0,0,50.4,12.9,59.9,21.8c0,0-5.3,70.8-13.2,84.6c0,0-12.2-4.5-15.1-4.2c0,0-1.3-53.2,10.8-67.9
	c0,0-70.5-2.1-71.4-10.2S233.6,376.1,233.6,376.1z"/>
<path class="st28" d="M292.8,508.7l-1.7-9.8c22.8-0.4,29.6,11.5,30.7,13.5L292.8,508.7z"/>
<path class="st36" d="M170.8,393.7c0,0-2.4,24.4,15.7,24.3s71,0,71,0s3.5,0.8,3.9,3.4c2.3,19.3,6.1,34.8,11.6,44.6
	c5.4,9.6,10.5,19.1,10.5,19.1s6.8-5,12.7-5.3c0,0-11.6-82-13.7-84.2c-2.1-2.2-51-15.8-57.6-14.5S170.8,393.7,170.8,393.7z"/>
<path class="st28" d="M265.3,501.9l2.9-9.5c20.4,10.3,21.3,24,21.3,26.4L265.3,501.9z"/>
<path class="st37" d="M254.2,364.3c0,0-10.6,7.7-15.1,6.9s-10-14.6-10.7-17.3v-0.1c-0.2,1-0.3,2.1-0.3,3.1c-0.1,2.4,7.2,15.7,8,18.7
	s-6.1,6-6.8,7.6c-0.3,0.8-5.1,7.4-11.9,14.3c-7.9,7.9-18.6,16-28.6,15.7c-8-0.3-12.4-3.2-14.8-6.4c-2-2.6-3-5.8-3-9.1
	c0,0-1.4-10,4.5-24.2l0.4-0.9c3.7-8.5,3.3-23.8,2.3-35.3l0,0c-0.7-8.4-1.8-14.8-1.8-14.8l12.6-43.1c0,0,12.4,11.3,20.4,13.2
	c0,0,6.6-8.5,7-11c0,0,13.2,1.5,13.9,1.9s11.2,17.6,13.6,32.1s4.3,30.9,5,31s6.3,0.3,6.9,1.1c-1,3-1.6,6.2-1.9,9.3
	C253.6,359.9,253.5,362.9,254.2,364.3z"/>
<path class="st27" d="M169.7,284.4c0,0-13.4,42.2-9.2,70.7c0,0,12.5,7.5,41.2,18.2l2-7.2c0,0-25.9-15.7-28.8-22.7
	c0,0,17.6-54.5,13.4-59.1S169.7,284.4,169.7,284.4z"/>
<path class="st37" d="M189,279.2c0,0-15.6,0.6-18.1,3s-16.7,45-14.8,67.1s16.3,16.3,16.3,16.3s0.8-15.9,5.2-18.7
	c0,0-2.2-3.2-1.8-4.4s14.5-29.7,14.7-44.2S189,279.2,189,279.2z"/>
<path class="st38" d="M254.2,364.3c0,0-10.6,7.7-15.1,6.9s-10-14.6-10.7-17.3v-0.1c0,0,1.9-21.6,1.9-25.9s2.2-4.6,3.3,0
	s9.8,29.1,11.3,30.2s9-1.1,9-1.1l0,0C253.6,359.9,253.5,362.9,254.2,364.3z"/>
<path class="st27" d="M193.8,365.4l9.5,0.6c5.5-3.1,12.5-1.9,16.6,3c0,0,2.9,3.7-0.4,4.5s-2.2,0.1-6.9,1.4s-9.7,0.5-12.1-2.1
	l-4.3-4.1L193.8,365.4z"/>
</svg>
